<?xml version="1.0" encoding="UTF-8"?>
<svg width="73px" height="100px" viewBox="0 0 73 100" version="1.1" xmlns="http://www.w3.org/2000/svg" xmlns:xlink="http://www.w3.org/1999/xlink">
    <!-- Generator: Sketch 44.1 (41455) - http://www.bohemiancoding.com/sketch -->
    <title>bikeable-logo-gr</title>
    <desc>Created with Sketch.</desc>
    <defs></defs>
    <g id="Page-1" stroke="none" stroke-width="1" fill="none" fill-rule="evenodd">
        <g id="bikeable-logo-gr" fill-rule="nonzero" fill="#14BDCC">
            <g id="Logo" transform="translate(1.000000, 1.000000)">
                <path d="M44.4533766,67.3452336 C44.4370732,67.2978772 44.3996246,67.26068 44.3519481,67.244486 C42.571468,66.6689274 40.6479116,66.7044092 38.8901732,67.3452336 C38.8314015,67.3643701 38.7848667,67.4094651 38.7641558,67.467352 C38.7461139,67.5183194 38.7529276,67.5747196 38.7825974,67.62 L41.5303896,72.0742679 C41.5637072,72.1317585 41.6265806,72.1659299 41.69329,72.1628037 C41.7600416,72.1628794 41.8214382,72.1265233 41.8531169,72.068162 L44.4410823,67.5070405 C44.4686002,67.4574251 44.4730859,67.3983895 44.4533766,67.3452336 L44.4533766,67.3452336 Z" id="Shape"></path>
                <path d="M41.4719913,45.8432399 C41.4258874,45.7485981 41.164632,45.7485981 41.1277489,45.8432399 L34.7316017,57.6795639 C34.6854978,57.7650467 34.7131602,57.7558879 34.7316017,57.7894704 C34.7500433,57.823053 34.7992208,57.8444237 34.8975758,57.8444237 L45.7473593,57.8993769 C45.7688745,57.8993769 46.5618615,56.7331464 46.5526407,56.7117757 L41.4719913,45.8432399 Z" id="Shape"></path>
                <path d="M41.7332468,86.6735202 C39.7642082,86.6738086 37.8286097,86.1679154 36.1147186,85.2050467 C30.5965184,82.1000128 28.6417572,75.149411 31.7409957,69.653271 C32.4292371,68.4368912 33.3391057,67.3581758 34.4242424,66.4720872 C34.4979573,66.4125013 34.5151264,66.3075548 34.4641991,66.2278505 L30.8312121,60.3447975 C30.7969469,60.2893967 30.7368218,60.254942 30.6713853,60.2532087 L28.0004329,60.1768847 C27.928598,60.1757918 27.861704,60.2130943 27.8252381,60.2745794 L27.4287446,60.9706542 C27.2724182,61.260163 27.0237798,61.4899518 26.7218182,61.6239875 C26.3176275,61.7953425 25.8560608,61.7693701 25.4739394,61.5537695 L25.4554978,61.5537695 C25.1653957,61.3991096 24.9351447,61.1532246 24.8008225,60.8546417 C24.6287892,60.4530811 24.6549245,59.994833 24.8715152,59.6151402 L27.5701299,54.8616822 C27.7261844,54.5741402 27.9752216,54.3472093 28.2770563,54.2175078 C28.6766846,54.0544862 29.1293564,54.0814642 29.5064935,54.2907788 L29.5679654,54.3243614 C30.2472649,54.705005 30.4879379,55.5601469 30.1058442,56.235514 L29.5126407,57.2796262 C29.5035878,57.2938802 29.5031487,57.3119214 29.5114975,57.3265933 C29.5198464,57.3412652 29.5356338,57.3501965 29.5525974,57.3498442 L31.1662338,57.3986916 C31.2804043,57.4018746 31.3869365,57.3419116 31.4428571,57.2429907 L39.6432035,42.8024922 C39.6727654,42.7496302 39.675578,42.6860366 39.6507968,42.6308034 C39.6260156,42.5755701 39.5765262,42.5351285 39.5171861,42.5216199 L37.8512987,42.1308411 C37.2424144,42.0086729 36.7197906,41.6238115 36.4251515,41.0806231 C36.1146248,40.4872462 36.1285144,39.777882 36.4620346,39.196947 L38.34,35.8997508 C38.4404625,35.7232637 38.3803564,35.4993786 38.2047619,35.3960125 C38.0295671,35.2952648 37.8820346,35.2464174 37.6668831,35.5669782 L37.6023377,35.6738318 C37.4768296,35.8852736 37.2963486,36.0592704 37.0798268,36.1775701 C36.6519743,36.408899 36.1311925,36.3901738 35.7212987,36.1287227 C35.1122111,35.7255649 34.9341691,34.9155795 35.318658,34.296947 C35.4234284,34.1230275 35.5405204,33.9567305 35.6690476,33.7993146 L35.7919913,33.6405607 C36.6249351,32.562866 37.8543723,32.2819938 39.2559307,32.8467913 C41.6994372,33.8267913 41.5703463,35.658567 41.0293939,37.0232399 L40.998658,37.090405 L40.0612121,38.7420561 C39.9551884,38.9225554 39.9494626,39.1443756 40.0460347,39.3300346 C40.1426068,39.5156936 40.3280614,39.6394003 40.537619,39.6579439 L47.3640693,40.2990654 C47.6714286,40.3265421 47.7728571,40.2166355 47.8835065,39.8685981 L47.9019481,39.8166978 C48.1560682,39.0828205 48.4642612,38.3685311 48.824026,37.6796262 C50.9988317,33.8553356 55.1921195,31.6122513 59.603631,31.9133722 C64.0151424,32.2144931 67.8601008,35.006252 69.4877922,39.0900935 C69.5382619,39.2187635 69.6694011,39.2977626 69.807601,39.2827485 C69.9458009,39.2677344 70.0566475,39.1624457 70.0779221,39.0259813 C70.31807,37.5807152 70.4434491,36.1189318 70.4529004,34.6541433 C70.4529004,15.9639252 54.8267532,0.766292835 35.6198701,0.766292835 C16.412987,0.766292835 0.799134199,15.9730841 0.799134199,34.6602492 C0.799134199,56.3362617 31.9561472,94.6661682 33.2839394,96.2872897 C33.8619445,96.9850944 34.7239621,97.3894111 35.6337013,97.3894111 C36.5434405,97.3894111 37.4054581,96.9850944 37.9834632,96.2872897 C38.3738095,95.811028 41.345974,92.1474766 45.3600866,86.6704673 C45.4383898,86.5657841 45.4411017,86.423255 45.3668367,86.3157077 C45.2925717,86.2081604 45.1577304,86.1593454 45.0312121,86.1942056 C43.9611434,86.5121479 42.8501646,86.6736136 41.7332468,86.6735202 Z" id="Shape"></path>
                <path d="M37.1320779,64.5700935 C37.179523,64.6466422 37.2758788,64.6776829 37.3595238,64.6433645 C40.0227186,63.492884 43.0335526,63.4238443 45.7473593,64.451028 C45.884465,64.4997406 46.0371686,64.446207 46.1131169,64.3228037 L46.3835931,63.8465421 C46.4438254,63.7344885 46.4279125,63.5970979 46.3436364,63.5015576 C45.6505316,62.7158351 45.2283789,61.7306502 45.1387879,60.6897819 C45.1387879,60.6623053 34.7162338,60.5798754 34.6885714,60.6134579 C34.6609091,60.6470405 34.6393939,60.6317757 34.6885714,60.7142056 L37.1320779,64.5700935 Z" id="Shape"></path>
                <path d="M62.9287446,36.3821184 C58.9254305,34.1446208 53.8541446,35.5487109 51.5933333,39.5205607 C51.4081301,39.8283951 51.2448311,40.1487199 51.104632,40.47919 C51.0578417,40.5979406 51.0578417,40.7298476 51.104632,40.8485981 C51.1199001,40.8768421 51.1450452,40.8985606 51.1753247,40.9096573 L58.2292208,41.4714019 C58.9853247,41.5202492 59.4340693,42.0819938 59.3941126,42.894081 C59.3541558,43.7061682 58.8101299,44.2068536 57.9372294,44.2068536 L57.8665368,44.2068536 L50.7972727,43.6206854 L50.7142857,43.6206854 C50.666424,43.6152647 50.6180551,43.6248736 50.575974,43.648162 C50.5418559,43.6929756 50.5234983,43.7476785 50.5237229,43.8038629 C50.4438095,46.4813084 52.1834632,49.3571963 54.7591342,50.7981931 C58.7606687,53.0251096 63.8217025,51.6209721 66.0822511,47.6566978 C68.3318052,43.6766397 66.9228291,38.6391955 62.9287446,36.3821184 L62.9287446,36.3821184 Z" id="Shape"></path>
                <path d="M33.7419048,77.5176947 C34.6975023,80.9263658 37.7317343,83.3525936 41.288348,83.5519699 C44.8449618,83.7513462 48.1347589,81.6796302 49.4704077,78.3994016 C50.8060565,75.119173 49.891182,71.3583016 47.1950216,69.0457321 C47.1493224,69.0043363 47.0868976,68.9862982 47.025974,68.9968847 C46.9724379,69.0054358 46.9259052,69.0381282 46.8999567,69.0854206 L44.1337229,73.948785 C43.6481739,74.8045644 42.7429201,75.3411919 41.7541262,75.3593916 C40.7653323,75.3775913 39.8406847,74.8746449 39.3235498,74.0373209 L36.3821212,69.277757 C36.3535005,69.2307295 36.3048328,69.1992516 36.2499567,69.1922741 L36.2222944,69.1922741 C36.1717198,69.1923466 36.1231809,69.2120701 36.0870563,69.2472274 C33.8051391,71.3487062 32.8985828,74.5416049 33.7388312,77.5176947 L33.7419048,77.5176947 Z" id="Shape"></path>
                <path d="M54.0952381,53.8328349 C50.106321,51.983751 47.502862,48.0640592 47.3609957,43.6939564 C47.3618609,43.6268044 47.3525354,43.5599061 47.3333333,43.495514 L44.0661039,43.2512773 C43.9431602,43.2512773 43.9093506,43.3001246 43.8939827,43.3245483 C43.8272608,43.4528615 43.8272608,43.6053317 43.8939827,43.7336449 L49.2266667,55.2768847 C49.2828167,55.392323 49.4055957,55.4606176 49.534026,55.4478505 C51.0581123,55.1937197 52.6163227,55.6356135 53.7755844,56.6507165 C55.0744725,57.8040235 55.6375933,59.5686376 55.2447619,61.2545794 C54.6821767,63.8566672 52.1431641,65.5465343 49.5063636,65.0738318 C49.3841939,65.055992 49.2631371,65.1125067 49.1990043,65.2173209 L48.9285281,65.6935826 C48.8610244,65.8225753 48.8944576,65.9809552 49.0084416,66.0721495 C51.4533686,67.986399 52.983899,70.8266437 53.2315584,73.9090966 C53.2531141,74.027314 53.3424681,74.1219834 53.4598484,74.1509668 C53.5772287,74.1799502 53.7008096,74.1378584 53.7755844,74.0434268 C57.9464502,67.6047352 62.1572727,60.3783801 65.2462338,53.3901558 C65.2834175,53.272739 65.2459762,53.1446272 65.1512751,53.0652387 C65.0565739,52.9858501 64.9231389,52.9707153 64.8128571,53.0268536 C61.6123286,55.0929977 57.5724591,55.396802 54.0952381,53.8328349 L54.0952381,53.8328349 Z" id="Shape"></path>
                <path d="M48.8055844,61.9750779 C49.3963563,62.4549936 50.2000144,62.5853967 50.9138285,62.3171656 C51.6276426,62.0489346 52.1431674,61.4228201 52.2662095,60.6746734 C52.3892517,59.9265267 52.1011183,59.1700091 51.5103463,58.6900935 C50.9195744,58.2101778 50.1159163,58.0797747 49.4021022,58.3480057 C48.6882881,58.6162367 48.1727634,59.2423512 48.0497212,59.9904979 C47.9266791,60.7386446 48.2148125,61.4951622 48.8055844,61.9750779 Z" id="Shape"></path>
            </g>
        </g>
    </g>
</svg>