<?xml version="1.0" standalone="no"?>
<!DOCTYPE svg PUBLIC "-//W3C//DTD SVG 20010904//EN"
 "http://www.w3.org/TR/2001/REC-SVG-20010904/DTD/svg10.dtd">
<svg version="1.0" xmlns="http://www.w3.org/2000/svg"
 width="16.000000pt" height="16.000000pt" viewBox="0 0 16.000000 16.000000"
 preserveAspectRatio="xMidYMid meet">
<metadata>
Created by potrace 1.11, written by Peter Selinger 2001-2013
</metadata>
<g transform="translate(0.000000,16.000000) scale(0.002000,-0.002000)"
fill="#000000" stroke="none">
<path d="M3918 7804 c-2 -1 -30 -5 -63 -9 -33 -3 -71 -8 -85 -10 -14 -2 -43
-7 -65 -10 -23 -3 -52 -8 -65 -10 -14 -3 -38 -8 -55 -10 -57 -11 -290 -75
-355 -98 -161 -59 -365 -150 -376 -169 -3 -4 -12 -8 -20 -8 -8 0 -20 -5 -27
-10 -7 -6 -52 -34 -100 -63 -203 -119 -445 -322 -627 -527 -71 -80 -213 -276
-269 -372 -33 -57 -65 -108 -71 -115 -5 -7 -10 -15 -10 -18 0 -2 -22 -51 -49
-107 -26 -57 -61 -137 -76 -178 -15 -41 -31 -84 -36 -95 -9 -23 -66 -228 -73
-265 -3 -14 -11 -59 -19 -100 -51 -261 -56 -553 -12 -820 11 -72 22 -121 60
-290 3 -11 59 -200 79 -265 2 -5 8 -23 14 -38 7 -16 12 -32 12 -37 0 -9 72
-202 95 -255 7 -16 29 -70 49 -119 20 -48 55 -126 76 -173 22 -47 40 -87 40
-89 0 -6 189 -383 237 -474 51 -96 82 -150 154 -277 33 -57 59 -105 59 -108 0
-3 5 -11 10 -18 8 -10 97 -155 183 -302 7 -11 22 -34 34 -52 13 -17 23 -34 23
-37 0 -12 371 -579 495 -756 17 -25 58 -83 90 -130 33 -47 63 -89 68 -95 4 -5
70 -97 147 -203 205 -283 481 -644 560 -734 72 -82 176 -109 272 -71 58 23 86
52 222 228 64 83 120 155 124 160 23 28 265 353 324 436 37 52 71 99 75 104
23 28 203 287 203 291 0 2 -24 -9 -52 -25 -199 -111 -451 -143 -672 -86 -218
57 -414 197 -536 384 -46 69 -107 197 -115 243 -2 11 -7 28 -10 38 -32 102
-37 277 -10 409 20 104 100 288 150 345 14 16 25 32 25 36 0 4 33 40 74 80
l75 73 -37 56 c-19 31 -62 97 -94 146 -32 50 -61 97 -65 105 -4 8 -9 17 -13
20 -3 3 -27 40 -54 82 -26 43 -54 84 -61 92 -10 10 -47 14 -138 15 l-124 1
-37 -68 c-20 -37 -41 -73 -45 -81 -7 -11 -24 -6 -87 28 -44 24 -82 46 -86 50
-4 3 -2 18 6 31 12 24 29 55 138 255 27 50 58 106 69 125 11 19 34 63 51 97
l31 61 88 -46 c96 -51 97 -54 48 -123 -11 -16 -18 -29 -14 -29 3 0 -6 -17 -20
-37 -25 -37 -32 -62 -17 -64 4 0 46 -1 93 -2 l87 -2 41 80 c22 44 48 91 56
105 8 14 39 70 68 125 86 159 127 236 157 290 15 28 71 131 125 230 108 200
155 285 197 362 15 28 28 55 28 61 0 5 -19 13 -42 17 -24 4 -47 9 -53 10 -5 2
-23 5 -40 8 -16 3 -41 8 -55 12 -14 3 -40 8 -59 11 -69 11 -121 24 -121 30 0
2 8 18 19 37 22 40 96 176 128 237 111 211 152 277 192 308 17 13 32 22 34 20
2 -2 11 3 20 10 28 23 131 27 183 7 103 -39 158 -119 159 -230 0 -61 -5 -79
-38 -145 -20 -41 -46 -86 -57 -100 l-19 -25 -73 39 c-86 46 -102 57 -91 65 18
13 85 158 82 175 -5 26 -31 40 -60 33 -18 -5 -42 -40 -101 -149 l-76 -143 51
-12 c29 -7 63 -14 77 -17 14 -2 70 -14 125 -25 55 -12 116 -24 135 -27 19 -3
37 -7 40 -9 3 -2 25 -6 50 -10 25 -4 47 -8 50 -10 3 -2 25 -6 50 -10 25 -4 48
-9 52 -11 4 -3 27 -7 51 -10 l43 -6 29 72 c95 235 315 437 562 514 100 31 120
35 203 42 36 3 70 6 75 6 59 5 299 -40 330 -62 6 -4 30 -15 55 -24 65 -25 196
-116 263 -181 58 -58 147 -174 147 -193 0 -5 6 -15 14 -21 11 -9 13 -5 10 21
-1 18 -5 76 -8 128 -3 52 -8 106 -10 120 -3 14 -7 48 -10 75 -6 44 -31 170
-55 275 -39 165 -160 461 -258 630 -137 234 -253 385 -447 575 -73 72 -169
159 -215 195 -99 78 -311 220 -327 220 -7 0 -14 4 -16 8 -11 28 -417 207 -538
237 -8 2 -46 13 -85 24 -109 32 -277 66 -380 77 -33 3 -71 8 -85 11 -25 5
-478 12 -482 7z"/>
<path d="M5953 5478 c-247 -24 -465 -173 -577 -395 -14 -29 -26 -59 -26 -66 0
-9 28 -20 88 -31 48 -10 94 -19 102 -21 24 -5 373 -77 395 -81 11 -2 31 -6 45
-9 69 -13 80 -18 80 -31 0 -18 -30 -166 -36 -175 -2 -4 -21 -3 -41 2 -21 5
-54 12 -73 15 -19 3 -64 12 -100 20 -67 16 -75 18 -150 29 -25 4 -53 11 -62
16 -10 6 -18 8 -18 6 0 -3 -60 8 -132 23 -73 15 -136 26 -140 24 -4 -3 -5 -39
-2 -82 35 -552 640 -856 1106 -556 145 93 259 253 304 424 16 65 23 227 12
285 -17 84 -44 172 -60 190 -4 5 -8 17 -8 26 0 10 -3 19 -7 21 -5 2 -24 28
-44 58 -108 164 -309 287 -503 306 -34 3 -63 7 -66 8 -3 1 -42 -1 -87 -6z"/>
<path d="M4790 4907 c0 -5 57 -127 147 -317 82 -171 188 -396 276 -581 l45
-96 69 3 c164 5 296 -71 371 -214 41 -78 52 -156 38 -262 -12 -85 -115 -223
-201 -266 -78 -40 -184 -58 -253 -43 -32 7 -34 5 -58 -44 l-26 -50 43 -36
c175 -143 295 -345 334 -561 11 -59 14 -245 5 -283 -4 -21 -5 -37 -1 -37 5 1
181 283 251 404 14 24 64 111 112 194 48 82 100 174 116 203 16 30 53 97 81
149 52 94 218 428 261 525 13 28 36 78 51 113 43 96 129 311 129 323 0 6 -18
-3 -39 -20 -21 -17 -41 -31 -44 -31 -4 0 -29 -13 -57 -30 -27 -16 -50 -27 -50
-25 0 3 -18 -4 -40 -15 -22 -11 -40 -18 -40 -15 0 3 -9 1 -20 -5 -11 -6 -44
-15 -72 -20 -29 -6 -64 -13 -78 -15 -45 -10 -204 -7 -270 5 -241 42 -456 175
-595 369 -39 54 -118 201 -108 201 3 0 1 6 -4 13 -9 10 -16 31 -29 82 -21 86
-31 173 -30 251 l2 72 -100 21 c-56 11 -112 23 -126 25 -14 3 -40 8 -57 12
-18 3 -33 4 -33 1z"/>
<path d="M4591 4725 c-17 -30 -31 -59 -31 -64 0 -5 -3 -11 -7 -13 -5 -1 -16
-19 -25 -38 -16 -32 -32 -62 -124 -230 -17 -30 -48 -86 -69 -125 -21 -38 -62
-114 -92 -168 -29 -54 -79 -146 -110 -205 -31 -59 -62 -116 -69 -127 -29 -41
-22 -44 149 -45 89 0 300 -3 469 -5 l308 -5 24 37 c13 21 33 47 45 57 26 24
27 21 -61 205 -70 146 -126 264 -178 376 -15 33 -62 131 -104 218 -42 87 -76
163 -76 167 0 29 -22 13 -49 -35z"/>
<path d="M5264 3703 c-83 -48 -107 -86 -110 -170 -3 -68 7 -95 51 -144 69 -78
194 -81 276 -7 103 93 67 277 -63 325 -49 17 -119 15 -154 -4z"/>
<path d="M4029 3511 c-13 -5 -6 -22 40 -92 31 -48 88 -137 126 -198 49 -78 75
-110 85 -107 52 17 147 53 158 59 6 5 12 6 12 4 0 -3 17 -1 38 5 67 16 261 18
342 2 41 -8 89 -17 105 -21 17 -3 35 -9 40 -13 32 -22 44 -18 69 25 32 54 32
59 1 93 -32 34 -69 112 -86 177 -7 28 -14 52 -15 54 -2 2 -200 6 -441 8 -241
2 -442 5 -448 7 -5 2 -17 0 -26 -3z"/>
<path d="M4545 2988 c-54 -11 -165 -48 -165 -55 0 -3 64 -105 142 -228 119
-186 144 -220 154 -206 6 9 29 50 51 91 22 41 52 95 65 120 57 103 128 238
128 244 0 5 -38 17 -105 33 -37 9 -230 10 -270 1z"/>
<path d="M5045 2758 c-26 -51 -51 -97 -55 -103 -4 -5 -29 -50 -56 -100 -26
-49 -58 -108 -71 -130 -12 -22 -27 -49 -32 -60 -5 -11 -39 -74 -75 -139 -36
-66 -66 -123 -66 -128 0 -13 -17 -9 -23 6 -3 8 -40 67 -81 130 -42 64 -76 121
-76 126 0 6 -4 10 -10 10 -5 0 -10 4 -10 9 0 5 -24 45 -52 90 -46 69 -74 113
-180 279 -10 15 -22 37 -28 50 -5 12 -14 22 -18 22 -30 0 -133 -123 -177 -210
-82 -161 -100 -359 -49 -531 18 -61 77 -183 99 -206 8 -8 15 -17 15 -21 0 -8
86 -99 116 -122 167 -133 372 -188 576 -153 79 13 201 56 229 80 8 7 20 13 25
13 34 0 190 158 242 245 71 121 94 202 98 355 4 156 -28 270 -112 402 -45 70
-148 178 -169 178 -8 0 -35 -42 -60 -92z"/>
</g>
</svg>
