<?xml version="1.0" standalone="no"?>
<!DOCTYPE svg PUBLIC "-//W3C//DTD SVG 20010904//EN"
 "http://www.w3.org/TR/2001/REC-SVG-20010904/DTD/svg10.dtd">
<svg version="1.0" xmlns="http://www.w3.org/2000/svg"
 width="512.000000pt" height="512.000000pt" viewBox="0 0 512.000000 512.000000"
 preserveAspectRatio="xMidYMid meet">
<metadata>
Created by potrace 1.11, written by Peter Selinger 2001-2013
</metadata>
<g transform="translate(0.000000,512.000000) scale(0.100000,-0.100000)"
fill="#000000" stroke="none">
<path d="M2455 5003 c-80 -7 -217 -26 -275 -40 -36 -8 -72 -16 -80 -18 -55
-11 -222 -75 -313 -120 -350 -173 -632 -459 -797 -807 -45 -97 -104 -252 -114
-301 -3 -12 -11 -54 -20 -93 -24 -114 -31 -189 -31 -344 1 -266 65 -519 230
-905 72 -170 243 -507 312 -617 12 -21 23 -40 23 -42 0 -7 150 -256 230 -381
193 -305 435 -651 659 -944 69 -90 137 -178 150 -195 52 -68 119 -93 187 -70
53 18 66 33 292 333 103 136 150 207 143 214 -6 6 -24 6 -53 -1 -24 -6 -72
-12 -108 -12 -170 -4 -303 51 -425 174 -105 106 -153 216 -162 366 -9 166 40
306 150 426 l59 64 -94 152 -94 152 -72 3 c-65 2 -73 0 -83 -20 -20 -37 -50
-57 -82 -55 -32 3 -67 39 -67 71 0 22 141 277 164 296 22 18 48 20 77 5 44
-22 49 -54 20 -114 l-19 -40 47 0 46 0 80 142 c44 79 85 150 90 160 11 19 29
50 71 126 16 29 34 61 39 70 140 240 148 261 90 262 -32 1 -102 37 -114 58
-22 41 -12 83 44 182 30 54 55 101 55 104 0 3 -9 6 -20 6 -11 0 -20 -4 -20
-10 0 -14 -52 -37 -77 -32 -63 10 -64 92 -1 148 91 82 250 18 263 -105 3 -33
-3 -55 -31 -107 -56 -105 -56 -105 106 -119 89 -7 163 -15 207 -20 31 -5 32
-3 76 88 80 165 203 268 374 315 254 71 543 -58 660 -295 26 -55 52 -69 54
-30 0 12 3 33 6 47 8 37 8 255 0 325 -44 389 -205 733 -476 1017 -279 294
-678 488 -1076 524 -82 7 -247 11 -300 7z"/>
<path d="M3650 3246 c-80 -17 -148 -54 -206 -112 -58 -57 -113 -152 -92 -158
13 -5 113 -13 243 -22 39 -2 84 -6 100 -9 64 -9 89 -95 40 -134 -26 -20 -51
-21 -170 -7 -22 2 -69 7 -105 11 -36 3 -83 8 -106 11 l-41 4 9 -57 c32 -203
219 -359 423 -352 373 14 542 462 273 720 -98 94 -236 133 -368 105z"/>
<path d="M2992 2851 c-15 -9 -11 -20 105 -271 22 -47 66 -142 98 -212 l58
-128 46 -1 c93 -1 150 -26 204 -89 92 -108 62 -286 -61 -364 -39 -24 -103 -40
-159 -38 -22 1 -36 -5 -42 -16 -8 -15 2 -31 52 -84 82 -86 140 -200 154 -303
7 -54 19 -65 41 -35 98 140 294 482 439 769 144 285 150 308 68 260 -128 -76
-328 -87 -480 -27 -66 26 -165 99 -216 160 -79 95 -139 240 -139 337 0 32 -12
37 -94 40 -28 1 -52 4 -56 6 -3 2 -11 0 -18 -4z"/>
<path d="M2843 2718 c-5 -7 -34 -58 -63 -113 -79 -150 -129 -243 -165 -310
-75 -138 -93 -175 -87 -176 26 -5 543 -4 550 0 4 3 15 17 23 31 15 24 13 30
-45 155 -34 72 -75 162 -93 200 -60 132 -104 225 -107 225 -2 0 -8 -6 -13 -12z"/>
<path d="M3247 2084 c-29 -16 -57 -61 -57 -94 0 -25 23 -71 42 -88 23 -18 82
-21 115 -5 52 25 69 81 44 142 -21 49 -93 71 -144 45z"/>
<path d="M2532 1956 c39 -74 120 -187 131 -182 113 47 265 54 387 17 29 -9 37
-8 48 6 16 22 16 24 -13 63 -14 19 -28 52 -32 72 -5 34 -9 38 -37 39 -17 1
-135 2 -263 3 -231 2 -232 2 -221 -18z"/>
<path d="M2765 1646 c-22 -6 -39 -16 -37 -21 6 -19 137 -234 143 -235 6 0 122
201 134 231 4 10 0 19 -12 24 -31 13 -186 14 -228 1z"/>
<path d="M3057 1411 c-64 -114 -85 -142 -117 -160 -49 -27 -98 -27 -140 2 -30
20 -115 142 -156 222 -8 17 -21 39 -29 49 -15 19 -16 19 -46 -10 -17 -16 -47
-63 -67 -103 -36 -72 -37 -79 -37 -180 1 -98 3 -111 33 -172 86 -180 280 -275
469 -232 152 35 272 151 313 303 27 99 3 246 -54 330 -28 41 -74 90 -84 90 -4
0 -42 -63 -85 -139z"/>
</g>
</svg>
