<?xml version="1.0" standalone="no"?>
<!DOCTYPE svg PUBLIC "-//W3C//DTD SVG 20010904//EN"
 "http://www.w3.org/TR/2001/REC-SVG-20010904/DTD/svg10.dtd">
<svg version="1.0" xmlns="http://www.w3.org/2000/svg"
 width="16.000000pt" height="16.000000pt" viewBox="0 0 16.000000 16.000000"
 preserveAspectRatio="xMidYMid meet">
<metadata>
Created by potrace 1.11, written by Peter Selinger 2001-2013
</metadata>
<g transform="translate(0.000000,16.000000) scale(0.004720,-0.004720)"
fill="#000000" stroke="none">
<path d="M1525 3323 c-160 -19 -413 -121 -540 -218 -158 -120 -283 -273 -359
-439 -31 -68 -63 -160 -71 -206 -3 -18 -8 -36 -10 -40 -16 -26 -24 -247 -12
-340 47 -384 382 -1023 891 -1700 173 -230 192 -250 252 -250 42 0 51 5 88 43
42 43 48 50 161 202 87 117 95 133 71 151 -14 10 -24 10 -38 3 -31 -17 -156
-8 -216 15 -72 28 -155 108 -189 183 -22 48 -27 73 -28 143 0 77 3 92 32 150
18 36 49 82 69 103 l36 37 -31 55 c-61 108 -102 165 -119 166 -9 0 -32 2 -51
4 -26 2 -39 -3 -56 -21 -46 -49 -78 -18 -44 44 55 101 78 132 100 132 22 0 27
-38 8 -57 -23 -23 -2 -44 42 -41 40 3 44 6 80 68 21 36 43 74 48 85 5 11 22
43 39 71 38 66 88 154 124 223 29 56 27 72 -9 77 -88 13 -95 33 -43 131 30 58
37 79 29 90 -15 17 -34 17 -49 -2 -18 -21 -50 -19 -50 3 0 25 41 62 69 62 29
0 77 -25 89 -47 11 -18 -2 -77 -24 -108 -8 -11 -14 -27 -14 -36 0 -34 27 -42
193 -55 l85 -6 31 64 c91 187 295 261 478 172 62 -30 133 -99 158 -154 10 -21
24 -42 33 -45 33 -12 43 18 47 136 18 557 -390 1046 -953 1144 -70 12 -272 17
-347 8z"/>
<path d="M2360 2193 c-37 -13 -97 -44 -115 -60 -56 -49 -99 -133 -75 -148 8
-5 51 -10 170 -20 81 -7 96 -14 86 -40 -5 -15 -19 -16 -110 -10 -57 3 -114 8
-127 10 -81 16 -52 -129 46 -226 81 -82 217 -101 324 -48 110 55 169 162 158
284 -14 150 -127 256 -277 261 -36 1 -72 -1 -80 -3z"/>
<path d="M1931 1926 c-9 -10 -2 -34 30 -102 48 -105 66 -143 113 -246 l35 -78
47 0 c88 0 153 -70 140 -152 -12 -77 -57 -117 -139 -124 -28 -2 -54 -10 -59
-17 -14 -21 -9 -45 13 -61 51 -35 101 -127 115 -211 15 -85 45 -58 171 152
100 169 219 395 252 480 20 50 -5 69 -52 38 -39 -25 -148 -48 -204 -42 -112
12 -217 83 -271 185 -27 51 -35 78 -46 154 -3 26 -10 29 -74 34 -42 3 -63 0
-71 -10z"/>
<path d="M1849 1848 c-9 -7 -32 -42 -51 -78 -20 -36 -49 -90 -65 -120 -84
-153 -105 -200 -100 -213 4 -12 38 -15 189 -15 172 0 184 1 206 21 12 11 22
26 22 32 0 16 -159 358 -174 373 -10 10 -15 10 -27 0z"/>
<path d="M2090 1421 c-58 -58 -23 -146 59 -146 49 0 80 26 85 72 5 33 -25 92
-46 94 -7 0 -26 3 -41 5 -21 4 -35 -2 -57 -25z"/>
<path d="M1630 1354 c0 -19 63 -125 85 -144 11 -9 25 -8 65 5 50 17 111 16
210 0 28 -5 37 -2 47 14 11 17 9 26 -9 56 -11 20 -21 46 -22 58 -1 22 -4 22
-188 25 -170 3 -188 1 -188 -14z"/>
<path d="M1814 1160 c-38 -8 -54 -18 -54 -31 0 -14 76 -144 96 -164 15 -14 18
-14 33 -1 9 8 34 49 56 90 36 68 38 77 25 91 -18 17 -108 26 -156 15z"/>
<path d="M2022 1072 c-10 -15 -34 -54 -52 -87 -46 -82 -58 -95 -95 -95 -38 0
-57 20 -114 117 -23 39 -49 74 -58 77 -23 9 -59 -28 -90 -93 -65 -138 -6 -305
132 -376 51 -26 69 -30 134 -29 84 0 132 19 195 75 102 89 118 264 36 377 -43
60 -64 69 -88 34z"/>
</g>
</svg>
