<svg id="Ebene_1" data-name="Ebene 1" xmlns="http://www.w3.org/2000/svg" viewBox="0 0 265 350"><defs><style>.cls-1{fill:#14bdcc;}.cls-2{fill:#ff0093;}</style></defs><title>Zeichenfläche 28 Kopie 21</title><path class="cls-1" d="M158.63,231.59a.53.53,0,0,0-.33-.33,27.17,27.17,0,0,0-17.77.33.65.65,0,0,0-.41.4.57.57,0,0,0,.06.5l8.94,14.59a.58.58,0,0,0,.53.29.59.59,0,0,0,.52-.31l8.42-14.94A.64.64,0,0,0,158.63,231.59Z"/><path class="cls-2" d="M149.68,249.13a2.34,2.34,0,0,1-2-1.12l-8.94-14.59a2.33,2.33,0,0,1-.22-2,2.41,2.41,0,0,1,1.46-1.47,28.92,28.92,0,0,1,18.92-.34,2.3,2.3,0,0,1,1.42,1.36h0a2.38,2.38,0,0,1-.15,2l-8.42,14.93a2.34,2.34,0,0,1-2,1.2Zm-1-2.92h0Zm-6.23-13.41,7.18,11.72,6.77-12A25.44,25.44,0,0,0,142.42,232.8Zm-.75-1.22h0Zm15.4-.31h0Z"/><path class="cls-1" d="M148.93,161.16c-.15-.31-1-.31-1.12,0L127,199.93c-.15.28-.06.25,0,.36s.22.18.54.18l35.3.18c.07,0,2.65-3.82,2.62-3.89Z"/><path class="cls-2" d="M162.9,202.41h-.09l-35.25-.18a2.23,2.23,0,0,1-2-.92,1.9,1.9,0,0,1-.12-2.19l20.79-38.8a2.27,2.27,0,0,1,2.09-1.13h.06a2.28,2.28,0,0,1,2.1,1.23h0L167.07,196c.48,1,.27,1.32-2.31,5C164.23,201.8,163.8,202.41,162.9,202.41Zm-33.25-3.68,32.33.17c.44-.63,1.09-1.6,1.52-2.25l-15.21-32.71ZM149.36,162v0Z"/><path class="cls-1" d="M149.78,294.9a37.12,37.12,0,0,1-18.28-4.81,37.49,37.49,0,0,1-14.23-50.94A36.88,36.88,0,0,1,126,228.73a.61.61,0,0,0,.13-.8l-11.82-19.27a.63.63,0,0,0-.52-.3l-8.69-.25a.65.65,0,0,0-.57.32l-1.29,2.28a4.86,4.86,0,0,1-2.3,2.14,4.58,4.58,0,0,1-4.06-.23l-.06,0a4.84,4.84,0,0,1-2.13-2.29,4.59,4.59,0,0,1,.23-4.06l8.78-15.57a4.76,4.76,0,0,1,2.3-2.11,4.61,4.61,0,0,1,4,.24l.2.11a4.6,4.6,0,0,1,1.75,6.26l-1.93,3.42a.15.15,0,0,0,.13.23l5.25.16a1,1,0,0,0,.9-.51l26.68-47.3a.63.63,0,0,0-.41-.92L137.15,149a6.8,6.8,0,0,1-4.64-3.44,6.45,6.45,0,0,1,.12-6.17l6.11-10.8a1.22,1.22,0,0,0-.44-1.65c-.57-.33-1.05-.49-1.75.56l-.21.35a4.48,4.48,0,0,1-1.7,1.65,4.34,4.34,0,0,1-4.42-.16,4.42,4.42,0,0,1-1.31-6,14,14,0,0,1,1.14-1.63l.4-.52c2.71-3.53,6.71-4.45,11.27-2.6,7.95,3.21,7.53,9.21,5.77,13.68l-.1.22-3.05,5.41a2,2,0,0,0,1.55,3L168.1,143c1,.09,1.33-.27,1.69-1.41l.06-.17a51.77,51.77,0,0,1,3-7,37.34,37.34,0,0,1,67.23,4.62,1,1,0,0,0,1.92-.21,91.54,91.54,0,0,0,1.22-14.32c0-61.22-50.84-111-113.33-111S16.6,63.32,16.6,124.53c0,71,101.37,196.55,105.69,201.86a9.9,9.9,0,0,0,15.29,0c1.27-1.56,10.94-13.56,24-31.5a1,1,0,0,0-1.07-1.56A37.43,37.43,0,0,1,149.78,294.9Z"/><path class="cls-2" d="M129.93,331.75a11.54,11.54,0,0,1-9-4.26c-4.33-5.32-106.08-131.23-106.08-203,0-62.19,51.63-112.78,115.08-112.78S245,62.35,245,124.53a93.59,93.59,0,0,1-1.24,14.59,2.75,2.75,0,0,1-5.28.58,35.59,35.59,0,0,0-64.08-4.4,50.34,50.34,0,0,0-2.91,6.72l-.05.16a3.15,3.15,0,0,1-3.51,2.61l-22.23-2.17a3.75,3.75,0,0,1-2.9-5.58l3.07-5.47c2.13-5.48.56-9.2-4.82-11.37-2.67-1.08-6.43-1.6-9.23,2l-.4.53a12.53,12.53,0,0,0-1,1.42,2.67,2.67,0,0,0,.73,3.69,2.59,2.59,0,0,0,2.67.09,2.74,2.74,0,0,0,1-1l.21-.35c1.1-1.67,2.55-2.06,4.12-1.16a3,3,0,0,1,1.09,4l-6.11,10.81a4.69,4.69,0,0,0-.09,4.51,5.08,5.08,0,0,0,3.46,2.53l5.49,1.21a2.38,2.38,0,0,1,1.56,3.49L117.9,199.34a2.78,2.78,0,0,1-2.48,1.4l-5.25-.16a1.9,1.9,0,0,1-1.6-2.83l1.93-3.43a2.85,2.85,0,0,0-1.08-3.88l-.2-.11a2.84,2.84,0,0,0-2.52-.14,3,3,0,0,0-1.43,1.35l-8.78,15.57a2.82,2.82,0,0,0-.14,2.52,3.1,3.1,0,0,0,1.37,1.45,2.86,2.86,0,0,0,2.58.17,3.13,3.13,0,0,0,1.45-1.38l1.29-2.28a2.39,2.39,0,0,1,2-1.21h.17l8.69.25a2.37,2.37,0,0,1,2,1.14L127.65,227a2.38,2.38,0,0,1-.51,3.07,35.13,35.13,0,0,0-8.34,9.92A35.62,35.62,0,0,0,160,291.65a2.69,2.69,0,0,1,3,1,2.76,2.76,0,0,1,0,3.22c-13.16,18.14-22.95,30.25-24,31.57A11.55,11.55,0,0,1,129.93,331.75Zm0-316.49c-61.53,0-111.58,49-111.58,109.28,0,28.81,17.62,71.9,51,124.61a874.82,874.82,0,0,0,54.34,76.14,8.15,8.15,0,0,0,12.58,0c1-1.27,10.19-12.6,22.66-29.71a39.12,39.12,0,0,1-43.14-57.28A38.58,38.58,0,0,1,124.16,228l-11-17.93-7.41-.21-1,1.7a6.63,6.63,0,0,1-3.15,2.89,6.33,6.33,0,0,1-5.6-.32A6.66,6.66,0,0,1,93.11,211a6.34,6.34,0,0,1,.32-5.59l8.78-15.57a6.53,6.53,0,0,1,3.16-2.87,6.37,6.37,0,0,1,5.56.33l.2.11a6.35,6.35,0,0,1,2.42,8.65l-.63,1.12,2.15.07,25.71-45.58-4-.89A8.5,8.5,0,0,1,131,146.4a8.25,8.25,0,0,1,.16-7.82l4.19-7.42a6.07,6.07,0,0,1-6-.32,6.15,6.15,0,0,1-1.88-8.37,15.36,15.36,0,0,1,1.26-1.81l.39-.51c3.2-4.16,8.05-5.31,13.33-3.18,7.13,2.88,9.59,8.69,6.74,15.95l-.21.44-3.05,5.41a.25.25,0,0,0,.19.37l22,2.15.06-.18.06-.18a53,53,0,0,1,3.19-7.35A39.09,39.09,0,0,1,240.7,136a86.7,86.7,0,0,0,.82-11.47C241.51,64.28,191.46,15.26,129.93,15.26ZM112.85,209.57h0Zm-6.76-.29h0Z"/><path class="cls-1" d="M134.81,222.5a.6.6,0,0,0,.74.24,36.15,36.15,0,0,1,27.29-.63,1,1,0,0,0,1.19-.42l.88-1.56a1,1,0,0,0-.13-1.13,16.05,16.05,0,0,1-3.92-9.21c0-.09-33.91-.36-34-.25s-.16.06,0,.33Z"/><path class="cls-2" d="M135.33,224.54a2.36,2.36,0,0,1-2-1.11l-7.91-12.61a1.86,1.86,0,0,1,0-2.26c.48-.79.76-.79,6.73-.77l11.59.07c17,.13,17.27.19,17.48.24l1.25.29.11,1.28a14.33,14.33,0,0,0,3.48,8.19,2.73,2.73,0,0,1,.34,3.15l-.88,1.55a2.7,2.7,0,0,1-3.34,1.2,34.17,34.17,0,0,0-26,.6A2.3,2.3,0,0,1,135.33,224.54Zm-.47-3.4h0Zm-5-9.86,5.94,9.47a37.65,37.65,0,0,1,27.06-.5l.27-.49a17.86,17.86,0,0,1-3.79-8.25C154.2,211.43,136.73,211.29,129.84,211.29Z"/><path class="cls-1" d="M218.74,130.17a27.1,27.1,0,0,0-36.88,10.28,25.19,25.19,0,0,0-1.59,3.14,1.66,1.66,0,0,0,0,1.21.43.43,0,0,0,.23.2l22.95,1.84c2.46.16,3.92,2,3.79,4.66s-1.9,4.3-4.74,4.3h-.23l-23-1.92H179a.75.75,0,0,0-.45.09.84.84,0,0,0-.17.51c-.26,8.77,5.4,18.19,13.78,22.91A27.11,27.11,0,0,0,229,167.1,27.18,27.18,0,0,0,218.74,130.17Z"/><path class="cls-2" d="M205.39,182.63a28.6,28.6,0,0,1-14.09-3.72c-8.92-5-15-15.1-14.67-24.49a2.54,2.54,0,0,1,.77-1.77,2.35,2.35,0,0,1,1.6-.53l.44,0,23,1.92h.09c1.93,0,2.91-.86,3-2.64.06-1.22-.27-2.71-2.15-2.83l-23.22-1.87-.23-.09a2.18,2.18,0,0,1-1.12-1,3.29,3.29,0,0,1-.15-2.59,21,21,0,0,1,1.74-3.49,28.85,28.85,0,0,1,39.26-10.95h0a28.94,28.94,0,0,1,11,39.31,28.63,28.63,0,0,1-17.38,13.59A29,29,0,0,1,205.39,182.63Zm-25.26-26.91c.27,7.79,5.43,15.94,12.88,20.14a25.36,25.36,0,0,0,34.5-9.62,25.43,25.43,0,0,0-9.63-34.54h0a25.35,25.35,0,0,0-34.49,9.62c-.56,1-.91,1.65-1.12,2.07l21.32,1.71c3.39.22,5.57,2.83,5.39,6.49s-2.84,6.11-6.79,6Z"/><path class="cls-1" d="M123.78,264.91a27.07,27.07,0,1,0,43.77-27.75A.65.65,0,0,0,167,237a.57.57,0,0,0-.41.29l-9,15.93a9.08,9.08,0,0,1-15.65.29l-9.57-15.59a.59.59,0,0,0-.43-.28h-.09a.63.63,0,0,0-.44.18,27,27,0,0,0-7.64,27.09Z"/><path class="cls-2" d="M149.8,286.47a28.77,28.77,0,0,1-27.7-21.09h0a28.78,28.78,0,0,1,8.14-28.85,2.38,2.38,0,0,1,1.63-.64l.3,0a2.36,2.36,0,0,1,1.71,1.1l9.57,15.59a7.33,7.33,0,0,0,12.63-.23l9-15.93a2.33,2.33,0,0,1,1.63-1.16,2.4,2.4,0,0,1,2,.56,28.82,28.82,0,0,1-18.9,50.63Zm-24.33-22a25.32,25.32,0,1,0,41.94-25l-8.29,14.69a10.83,10.83,0,0,1-18.66.35l-8.82-14.37a25.29,25.29,0,0,0-6.17,24.38Zm7.15-25.34h0Zm33.79-.61h0Zm1.7-.33h0Z"/><path class="cls-1" d="M190,187.33a38,38,0,0,1-21.91-33.21,2.19,2.19,0,0,0-.09-.65l-10.63-.8c-.4,0-.51.16-.56.24a1.46,1.46,0,0,0,0,1.34l17.35,37.81a1,1,0,0,0,1,.56,16.69,16.69,0,0,1,13.8,3.94,15.53,15.53,0,0,1,4.78,15.08,16.16,16.16,0,0,1-18.67,12.51,1,1,0,0,0-1,.47l-.88,1.56a1,1,0,0,0,.26,1.24,36.37,36.37,0,0,1,13.74,25.67,1,1,0,0,0,1.77.44c13.57-21.09,27.27-44.76,37.32-67.65a1,1,0,0,0-1.41-1.19A36.42,36.42,0,0,1,190,187.33Z"/><path class="cls-2" d="M188.12,255.71a2.74,2.74,0,0,1-.66-.08,2.71,2.71,0,0,1-2-2.4,34.68,34.68,0,0,0-13.07-24.43,2.7,2.7,0,0,1-.7-3.48l.88-1.56a2.74,2.74,0,0,1,2.87-1.33A14.33,14.33,0,0,0,192,211.26a13.77,13.77,0,0,0-4.2-13.37,15,15,0,0,0-12.46-3.54,2.72,2.72,0,0,1-2.83-1.58L155.21,155a3.18,3.18,0,0,1,.16-3,2.26,2.26,0,0,1,2-1h.1l10.75.81c.72.1,1.57.59,1.59,2.36a36.28,36.28,0,0,0,20.89,31.64,34.84,34.84,0,0,0,33.14-2.54,2.72,2.72,0,0,1,4,3.37c-8.87,20.22-21.47,43.06-37.45,67.9A2.71,2.71,0,0,1,188.12,255.71ZM175,226.45a38.16,38.16,0,0,1,13.63,24.26c14.72-23,26.48-44.3,35-63.28a38.34,38.34,0,0,1-34.35,1.49h0a39.9,39.9,0,0,1-22.9-33.82l-7.53-.56,16.65,36.28a18.34,18.34,0,0,1,14.59,4.4A17.31,17.31,0,0,1,195.46,212,17.82,17.82,0,0,1,175.3,226Zm.72-35.13h0Z"/><path class="cls-1" d="M172.79,214a6.95,6.95,0,1,0,8.8-10.76,6.95,6.95,0,1,0-8.8,10.76Z"/><path class="cls-2" d="M177.17,217.35a8.73,8.73,0,0,1-5.48-2h0a8.64,8.64,0,1,1,5.48,2Zm-3.29-4.69a5.2,5.2,0,1,0-1.6-5.74,5.19,5.19,0,0,0,1.6,5.74Z"/></svg>