<?xml version="1.0" encoding="UTF-8"?><svg id="a" xmlns="http://www.w3.org/2000/svg" viewBox="0 0 900 1270"><path d="M672.2,594.49c-7.93-2.6-14.26-8.52-17.39-16.24-3.12-7.7-2.68-16.34,1.19-23.69,6.34-12.03,20.33-17.82,33.26-13.77,17.88,5.6,37.4,6.42,54.98,2.33,54.7-12.74,88.84-67.62,76.1-122.32-12.73-54.66-67.7-88.84-122.53-76.2-21.59,5.03-40.56,16.69-54.82,33.73-13.82,16.51-22.23,37.33-23.68,58.63-.07,.99-.19,1.97-.36,2.93,.58,11.88-3.62,23.65-11.62,32.49-8.29,9.16-20.13,14.57-32.48,14.84l-36.54,.88c42.46,35.8,56.01,79.94,59.63,95.56,.58,2.5,.98,4.51,3.59,18.82l2.84,15.63-53.45,11.38-3.26-18.8c-2.16-12.44-3.05-17.58-3.76-20.17-6.32-23.01-22.79-48.64-44.04-68.57-21.43-20.09-43.85-30.84-61.49-29.45l-.52,.03-19.65,.91c-12.17,.54-23.82-4.88-31.21-14.54-7.39-9.66-9.59-22.34-5.87-33.92l27.42-85.65c2.28-7.15,7.24-12.96,13.95-16.35,6.71-3.39,14.33-3.93,21.45-1.51l.31,.11c14.2,4.82,22.1,20.35,17.61,34.65l-16.61,52.95,118.67-4.29c3.75-30.16,16.4-59.24,36.09-82.67,22.19-26.39,51.67-44.48,85.27-52.31,37.29-8.69,75.78-3.4,108.77,13.72-44.58-108.22-136.75-193.58-265.7-220.59C326.8,40.81,126.15,179.46,86.8,368.12c-62.54,299.91,169.67,611.21,347.28,798.51,13.09,13.8,35.04,13.83,48.16,.07,17.63-18.49,43.51-46.91,73.3-83.6-3.34,.21-6.69,.33-10.07,.33-6.5,0-13.07-.4-19.68-1.23-37.25-4.64-71.74-22.44-97.12-50.12-25.07-27.34-39.86-62.69-41.64-99.53l-.02-.57c-.02-1.18-.02-2.36-.02-3.54,.01-8.92,4.1-17.12,11.21-22.51,7.12-5.39,16.13-7.1,24.73-4.69,12.06,3.38,20.55,14.49,20.65,27.03,.02,2.33,.15,4.68,.4,6.98v.1c2.29,22.56,12.28,44.05,28.14,60.52,16.33,16.95,37.3,27.45,60.64,30.36,26.93,3.35,53.6-4.01,75.1-20.73,21.52-16.73,35.22-40.8,38.58-67.76,2.75-22.08-1.66-43.94-12.74-63.23-7.79-13.55-18.7-25.21-31.55-33.91l-25.29,78.43c-4.09,12.68-14.3,21.99-27.3,24.9-13,2.91-26.2-1.17-35.31-10.9-19.21-20.54-52.49-56.1-64.94-69.41h-.03l-21.22-22.82-34.31-36.34c-27.63-29.26-37.14-71.25-24.83-109.56l47.91-149.14c2.31-7.18,7.53-13.16,14.34-16.41,6.8-3.25,14.74-3.56,21.77-.84,13.48,5.2,20.66,20.08,16.36,33.87l-42.8,136.75c-8.33,26.7-1.6,55.96,17.58,76.34l25.39,26.98,16.88,18.24,46.8,50.09,21.12-65.48,29.35-89.02,2.38-8.61-12.43,1.93-119.09,20.77,17.89-58.42,114.87-20.86c17.33-3.07,34.5,3.01,45.99,16.24,11.5,13.23,15.12,31.07,9.69,47.74l-23,70.57c25.62,13.75,47.39,34.64,62.14,59.87,5.88,10.05,10.57,20.56,14.06,31.39,49.52-88.59,93.28-191.31,115.09-302.03-16.54,10.76-34.16,18.47-52.72,22.97-28.6,6.94-58.44,5.78-86.3-3.35Zm-327.98,80.29l-6.75,20.32-11.28,34.98c-2.59,8.04-9.33,13.88-18.5,16.01-2.49,.58-5.13,.87-7.83,.87-4.17,0-8.5-.68-12.69-2.04-17.67-5.7-27.56-20.67-23-34.83,4.49-13.94,13.21-41.24,17.78-55.53,1.86-5.82,6.05-10.65,11.8-13.61,7.61-3.91,17.53-4.36,27.21-1.24l.4,.13c9.67,3.12,17.44,9.29,21.31,16.94,2.93,5.79,3.48,12.18,1.55,18Z" style="fill:#33bdca;"/></svg>