<?xml version="1.0" encoding="UTF-8"?>
<svg width="130px" height="130px" viewBox="0 0 130 130" version="1.1" xmlns="http://www.w3.org/2000/svg" xmlns:xlink="http://www.w3.org/1999/xlink">
    <!-- Generator: Sketch 43.1 (39012) - http://www.bohemiancoding.com/sketch -->
    <title>smile-bad</title>
    <desc>Created with Sketch.</desc>
    <defs></defs>
    <g id="Page-1" stroke="none" stroke-width="1" fill="none" fill-rule="evenodd">
        <g id="smile-bad" fill="#FFFFFF">
            <g id="Group" transform="translate(45.000000, 37.000000)">
                <circle id="Oval-2" cx="4" cy="4" r="4"></circle>
                <circle id="Oval-2-Copy" cx="37" cy="4" r="4"></circle>
            </g>
            <path d="M27.75,67.2592593 C27.75,86.2441419 44.5967389,101.518519 65.25,101.518519 C85.9032611,101.518519 102.75,86.2441419 102.75,67.2592593 C102.75,65.725135 101.506347,64.4814815 99.9722222,64.4814815 C98.4380979,64.4814815 97.1944444,65.725135 97.1944444,67.2592593 C97.1944444,83.0478609 82.9498466,95.962963 65.25,95.962963 C47.5501534,95.962963 33.3055556,83.0478609 33.3055556,67.2592593 C33.3055556,65.725135 32.0619021,64.4814815 30.5277778,64.4814815 C28.9936535,64.4814815 27.75,65.725135 27.75,67.2592593 Z" id="Oval-3" fill-rule="nonzero" transform="translate(65.250000, 83.000000) rotate(-180.000000) translate(-65.250000, -83.000000) "></path>
        </g>
    </g>
</svg>