<?xml version="1.0" encoding="UTF-8"?>
<svg width="439px" height="249px" viewBox="0 0 439 249" version="1.1" xmlns="http://www.w3.org/2000/svg" xmlns:xlink="http://www.w3.org/1999/xlink">
    <!-- Generator: Sketch 54.1 (76490) - https://sketchapp.com -->
    <title>Artboard</title>
    <desc>Created with Sketch.</desc>
    <g id="Artboard" stroke="none" stroke-width="1" fill="none" fill-rule="evenodd">
        <g id="flaticon1557089365-svg" transform="translate(1.000000, 1.000000)" fill="#000000" fill-rule="nonzero">
            <path d="M343.746,59.841 C331.05,59.841 318.942,62.399 307.904,67.021 L281.51,15.81 L318.4,15.81 C322.402,15.81 325.658,19.066 325.658,23.068 C325.658,27.07 322.402,30.326 318.4,30.326 L310.529,30.326 C306.386,30.326 303.029,33.684 303.029,37.826 C303.029,41.968 306.386,45.326 310.529,45.326 L318.4,45.326 C330.673,45.326 340.658,35.341 340.658,23.068 C340.658,10.795 330.674,0.81 318.4,0.81 L269.208,0.81 C266.593,0.81 264.166,2.173 262.804,4.406 C261.443,6.639 261.343,9.421 262.541,11.746 L275.666,37.213 L167.423,37.213 L156.503,15.81 L173.772,15.81 C177.915,15.81 181.272,12.452 181.272,8.31 C181.272,4.168 177.915,0.81 173.772,0.81 L124.579,0.81 C120.436,0.81 117.079,4.168 117.079,8.31 C117.079,12.452 120.436,15.81 124.579,15.81 L139.663,15.81 L154.239,44.378 L137.107,70.921 C123.994,63.856 109.006,59.841 93.096,59.841 C41.763,59.841 0,101.603 0,152.936 C0,204.269 41.763,246.032 93.096,246.032 C141.904,246.032 182.057,208.275 185.889,160.436 L207.896,160.436 L199.347,188.254 L194.425,188.254 C190.282,188.254 186.925,191.612 186.925,195.754 C186.925,199.896 190.282,203.254 194.425,203.254 L221.425,203.254 C225.568,203.254 228.925,199.896 228.925,195.754 C228.925,191.612 225.568,188.254 221.425,188.254 L215.039,188.254 L224.908,156.14 L287.314,59.813 L294.583,73.916 C268.226,90.374 250.65,119.639 250.65,152.936 C250.65,204.269 292.413,246.032 343.747,246.032 C395.08,246.032 436.843,204.269 436.843,152.936 C436.842,101.603 395.079,59.841 343.746,59.841 Z M162.121,59.826 L205.799,145.436 L185.888,145.436 C183.726,118.451 170.006,94.678 149.695,79.077 L162.121,59.826 Z M93.096,231.032 C50.033,231.032 15,195.999 15,152.936 C15,109.874 50.033,74.84 93.096,74.84 C106.01,74.84 118.191,78.01 128.933,83.583 C143.426758,92.1083984 153.594265,101.335276 161.600586,116.023437 C167.557932,126.952609 171,140.144531 171,159.801758 C167.212,199.358758 133.628,231.032 93.096,231.032 Z M218.819,137.949 L175.076,52.212 L274.365,52.212 L218.819,137.949 Z M343.746,231.032 C300.683,231.032 265.649,195.998 265.649,152.936 C265.649,125.438 279.947,101.232 301.487,87.313 C307.645406,83.5271849 312.086406,81.2295182 314.81,80.42 C323.766,76.834 333.524,74.839 343.746,74.839 C386.809,74.839 421.842,109.873 421.842,152.935 C421.842,195.999 386.809,231.032 343.746,231.032 Z" id="Shape"></path>
        </g>
    </g>
</svg>