<?xml version="1.0" encoding="UTF-8"?>
<svg width="65px" height="65px" viewBox="0 0 65 65" version="1.1" xmlns="http://www.w3.org/2000/svg" xmlns:xlink="http://www.w3.org/1999/xlink">
    <!-- Generator: Sketch 46.2 (44496) - http://www.bohemiancoding.com/sketch -->
    <title>thumbs-up-white</title>
    <desc>Created with Sketch.</desc>
    <defs></defs>
    <g id="Page-1" stroke="none" stroke-width="1" fill="none" fill-rule="evenodd">
        <g id="thumbs-up-white" fill-rule="nonzero" fill="#FFFFFF">
            <path d="M61.1992965,43.8299875 C62.464218,42.183187 63.070864,40.4178168 62.9934199,38.5997491 C62.9159757,36.5972396 62.0382751,35.0294856 61.3154628,34.0677541 C62.1544413,31.9335006 62.4771254,28.5740276 59.6762278,25.9654956 C57.6239572,24.055207 54.1389693,23.1988708 49.3116158,23.43601 C45.9169796,23.5941029 43.0773599,24.2396487 42.9611936,24.2659975 L42.9482862,24.2659975 C42.3029181,24.3845671 41.6188279,24.5294856 40.9218304,24.6875784 C40.8702009,23.8444166 41.0121819,21.7496863 42.5352507,17.0332497 C44.3422814,11.4209536 44.2390225,7.12609787 42.1996592,4.25407779 C40.0570371,1.23713927 36.6365861,1 35.6298118,1 C34.6617597,1 33.7711517,1.40840652 33.1386909,2.15934755 C31.7059737,3.85884567 31.8737694,6.99435383 32.0544725,8.44353827 C30.3507007,13.1072773 25.5749766,24.54266 21.5349722,27.7176913 C21.4575281,27.770389 21.3929912,27.836261 21.3284544,27.902133 C20.1409771,29.1800502 19.3407206,30.5633626 18.7986114,31.7754078 C18.0370771,31.3538269 17.1722838,31.1166876 16.2429537,31.1166876 L8.36946271,31.1166876 C5.40076938,31.1166876 3,33.5803011 3,36.5972396 L3,58.0056462 C3,61.0357591 5.41367675,63.4861982 8.36946271,63.4861982 L16.2429537,63.4861982 C17.3917089,63.4861982 18.46302,63.1173149 19.3407206,62.4849435 L22.3739508,62.8538269 C22.8386158,62.9196989 31.0993277,63.9868256 39.5794647,63.8155583 C41.1154408,63.934128 42.5610654,64 43.9034311,64 C46.2138489,64 48.2273974,63.8155583 49.9053545,63.446675 C53.8550074,62.5903388 56.5526461,60.8776662 57.9208265,58.3613551 C58.9663228,56.4378921 58.9663228,54.5276035 58.7985271,53.3155583 C61.3670922,50.9441656 61.8188499,48.3224592 61.7284984,46.4780427 C61.6768689,45.4109159 61.4445364,44.5018821 61.1992965,43.8299875 Z M8.36946271,59.9291092 C7.32396636,59.9291092 6.48498781,59.0595985 6.48498781,58.0056462 L6.48498781,36.5840652 C6.48498781,35.5169385 7.33687372,34.6606023 8.36946271,34.6606023 L16.2429537,34.6606023 C17.28845,34.6606023 18.1274286,35.5301129 18.1274286,36.5840652 L18.1274286,57.9924718 C18.1274286,59.0595985 17.2755427,59.9159348 16.2429537,59.9159348 L8.36946271,59.9159348 L8.36946271,59.9291092 Z M57.8950118,42.2885822 C57.3529025,42.868256 57.2496436,43.750941 57.6626792,44.43601 C57.6626792,44.4491844 58.1918811,45.3713927 58.2564179,46.6361355 C58.3467694,48.3619824 57.5336056,49.8902133 55.8298338,51.1944793 C55.2231878,51.6687578 54.9779479,52.4855709 55.2360951,53.2233375 C55.2360951,53.2365119 55.7911117,54.9755332 54.8875964,56.6223338 C54.0228031,58.2032622 52.0996061,59.336261 49.1825422,59.9686324 C46.8463097,60.4824341 43.6710985,60.574655 39.7730751,60.2584693 C39.7214457,60.2584693 39.6569089,60.2584693 39.5923721,60.2584693 C31.2929381,60.4429109 22.9031526,59.336261 22.8128011,59.3230866 L22.7998937,59.3230866 L21.4962501,59.1649937 C21.5736943,58.7961104 21.6124164,58.4008783 21.6124164,58.0056462 L21.6124164,36.5840652 C21.6124164,36.0175659 21.5220649,35.4642409 21.3671765,34.9504391 C21.599509,34.0677541 22.2448772,32.1047679 23.7679459,30.4316186 C29.5633516,25.7415307 35.2296836,9.91907152 35.4749235,9.23400251 C35.5781824,8.95734003 35.6039971,8.65432873 35.5523677,8.35131744 C35.3329425,6.87578419 35.4103867,5.07089084 35.7201634,4.53074028 C36.4042536,4.54391468 38.2500064,4.74153074 39.3600395,6.30928482 C40.6765905,8.16687578 40.624961,11.4868256 39.2051512,15.8870765 C37.0367143,22.5928482 36.8560113,26.1235885 38.5726904,27.6781681 C39.4245763,28.455458 40.5604242,28.4949812 41.3864954,28.1919699 C42.1738445,28.0075282 42.9224715,27.8494354 43.6323764,27.7308657 C43.6840059,27.7176913 43.7485427,27.7045169 43.8001722,27.6913425 C47.7627324,26.8086575 54.8617816,26.2685069 57.3270878,28.5608532 C59.4180805,30.510665 57.9337338,33.0928482 57.7659381,33.3695107 C57.2883657,34.1072773 57.4303467,35.0690088 58.0757148,35.661857 C58.0886222,35.6750314 59.4438952,36.9792974 59.508432,38.7314931 C59.5600615,39.9040151 59.0179523,41.1028858 57.8950118,42.2885822 Z" id="Shape"></path>
        </g>
    </g>
</svg>